<?xml version="1.0" standalone="no"?>
<!DOCTYPE svg PUBLIC "-//W3C//DTD SVG 20010904//EN"
 "http://www.w3.org/TR/2001/REC-SVG-20010904/DTD/svg10.dtd">
<svg version="1.0" xmlns="http://www.w3.org/2000/svg"
 width="256.000000pt" height="256.000000pt" viewBox="0 0 256.000000 256.000000"
 preserveAspectRatio="xMidYMid meet">
<metadata>
Created by potrace 1.11, written by Peter Selinger 2001-2013
</metadata>
<g transform="translate(0.000000,256.000000) scale(0.100000,-0.100000)"
fill="#000000" stroke="none">
<path d="M1223 2519 c-49 -9 -73 -21 -218 -106 -138 -81 -124 -73 -223 -133
-46 -27 -86 -50 -88 -50 -2 0 -23 -12 -47 -27 -23 -15 -51 -33 -63 -39 -114
-62 -276 -167 -310 -202 -25 -25 -52 -67 -65 -100 -22 -56 -23 -62 -23 -587 0
-522 1 -531 22 -578 30 -66 67 -113 121 -150 25 -18 50 -34 56 -37 6 -3 52
-30 103 -60 131 -78 163 -97 197 -116 16 -9 107 -64 202 -121 192 -115 276
-160 313 -170 14 -3 55 -6 91 -5 79 1 101 11 322 143 87 51 173 102 190 113
276 160 446 267 477 299 43 43 77 108 86 165 9 54 10 956 1 1026 -8 65 -46
143 -92 188 -31 30 -218 148 -235 148 -6 0 -10 4 -10 8 0 4 -12 13 -27 20 -16
6 -80 43 -143 81 -154 94 -348 209 -418 248 -49 28 -77 36 -162 48 -8 1 -34
-2 -57 -6z"/>
</g>
</svg>
